<svg xmlns="http://www.w3.org/2000/svg" xmlns:xlink="http://www.w3.org/1999/xlink" width="326" height="32" viewBox="0 0 326 32"><defs><style>.a{fill:none;}.b{clip-path:url(#a);}.c{stroke:#000;}.d{stroke:none;}</style><clipPath id="a"><rect class="a" width="326" height="32"/></clipPath></defs><g class="b"><g transform="translate(-289 -223)"><g class="c" transform="translate(289 223)"><rect class="d" width="8" height="8"/><rect class="a" x="0.5" y="0.5" width="7" height="7"/></g><g class="c" transform="translate(289 239)"><rect class="d" width="8" height="8"/><rect class="a" x="0.5" y="0.5" width="7" height="7"/></g><g class="c" transform="translate(297 231)"><rect class="d" width="8" height="8"/><rect class="a" x="0.5" y="0.5" width="7" height="7"/></g><g class="c" transform="translate(297 247)"><rect class="d" width="8" height="8"/><rect class="a" x="0.5" y="0.5" width="7" height="7"/></g></g><g transform="translate(-273 -223)"><g class="c" transform="translate(289 223)"><rect class="d" width="8" height="8"/><rect class="a" x="0.5" y="0.5" width="7" height="7"/></g><g class="c" transform="translate(289 239)"><rect class="d" width="8" height="8"/><rect class="a" x="0.5" y="0.5" width="7" height="7"/></g><g class="c" transform="translate(297 231)"><rect class="d" width="8" height="8"/><rect class="a" x="0.5" y="0.5" width="7" height="7"/></g><g class="c" transform="translate(297 247)"><rect class="d" width="8" height="8"/><rect class="a" x="0.5" y="0.5" width="7" height="7"/></g></g><g transform="translate(-257 -223)"><g class="c" transform="translate(289 223)"><rect class="d" width="8" height="8"/><rect class="a" x="0.5" y="0.5" width="7" height="7"/></g><g class="c" transform="translate(289 239)"><rect class="d" width="8" height="8"/><rect class="a" x="0.5" y="0.5" width="7" height="7"/></g><g class="c" transform="translate(297 231)"><rect class="d" width="8" height="8"/><rect class="a" x="0.5" y="0.5" width="7" height="7"/></g><g class="c" transform="translate(297 247)"><rect class="d" width="8" height="8"/><rect class="a" x="0.5" y="0.5" width="7" height="7"/></g></g><g transform="translate(-241 -223)"><g class="c" transform="translate(289 223)"><rect class="d" width="8" height="8"/><rect class="a" x="0.5" y="0.5" width="7" height="7"/></g><g class="c" transform="translate(289 239)"><rect class="d" width="8" height="8"/><rect class="a" x="0.5" y="0.5" width="7" height="7"/></g><g class="c" transform="translate(297 231)"><rect class="d" width="8" height="8"/><rect class="a" x="0.5" y="0.5" width="7" height="7"/></g><g class="c" transform="translate(297 247)"><rect class="d" width="8" height="8"/><rect class="a" x="0.5" y="0.5" width="7" height="7"/></g></g><g transform="translate(-225 -223)"><g class="c" transform="translate(289 223)"><rect class="d" width="8" height="8"/><rect class="a" x="0.5" y="0.5" width="7" height="7"/></g><g class="c" transform="translate(289 239)"><rect class="d" width="8" height="8"/><rect class="a" x="0.5" y="0.5" width="7" height="7"/></g><g class="c" transform="translate(297 231)"><rect class="d" width="8" height="8"/><rect class="a" x="0.5" y="0.5" width="7" height="7"/></g><g class="c" transform="translate(297 247)"><rect class="d" width="8" height="8"/><rect class="a" x="0.5" y="0.5" width="7" height="7"/></g></g><g transform="translate(-209 -223)"><g class="c" transform="translate(289 223)"><rect class="d" width="8" height="8"/><rect class="a" x="0.5" y="0.5" width="7" height="7"/></g><g class="c" transform="translate(289 239)"><rect class="d" width="8" height="8"/><rect class="a" x="0.5" y="0.5" width="7" height="7"/></g><g class="c" transform="translate(297 231)"><rect class="d" width="8" height="8"/><rect class="a" x="0.5" y="0.5" width="7" height="7"/></g><g class="c" transform="translate(297 247)"><rect class="d" width="8" height="8"/><rect class="a" x="0.5" y="0.5" width="7" height="7"/></g></g><g transform="translate(-193 -223)"><g class="c" transform="translate(289 223)"><rect class="d" width="8" height="8"/><rect class="a" x="0.5" y="0.5" width="7" height="7"/></g><g class="c" transform="translate(289 239)"><rect class="d" width="8" height="8"/><rect class="a" x="0.5" y="0.5" width="7" height="7"/></g><g class="c" transform="translate(297 231)"><rect class="d" width="8" height="8"/><rect class="a" x="0.5" y="0.5" width="7" height="7"/></g><g class="c" transform="translate(297 247)"><rect class="d" width="8" height="8"/><rect class="a" x="0.5" y="0.5" width="7" height="7"/></g></g><g transform="translate(-177 -223)"><g class="c" transform="translate(289 223)"><rect class="d" width="8" height="8"/><rect class="a" x="0.5" y="0.5" width="7" height="7"/></g><g class="c" transform="translate(289 239)"><rect class="d" width="8" height="8"/><rect class="a" x="0.5" y="0.5" width="7" height="7"/></g><g class="c" transform="translate(297 231)"><rect class="d" width="8" height="8"/><rect class="a" x="0.5" y="0.5" width="7" height="7"/></g><g class="c" transform="translate(297 247)"><rect class="d" width="8" height="8"/><rect class="a" x="0.5" y="0.5" width="7" height="7"/></g></g><g transform="translate(-161 -223)"><g class="c" transform="translate(289 223)"><rect class="d" width="8" height="8"/><rect class="a" x="0.5" y="0.5" width="7" height="7"/></g><g class="c" transform="translate(289 239)"><rect class="d" width="8" height="8"/><rect class="a" x="0.5" y="0.5" width="7" height="7"/></g><g class="c" transform="translate(297 231)"><rect class="d" width="8" height="8"/><rect class="a" x="0.5" y="0.5" width="7" height="7"/></g><g class="c" transform="translate(297 247)"><rect class="d" width="8" height="8"/><rect class="a" x="0.5" y="0.5" width="7" height="7"/></g></g><g transform="translate(-145 -223)"><g class="c" transform="translate(289 223)"><rect class="d" width="8" height="8"/><rect class="a" x="0.5" y="0.5" width="7" height="7"/></g><g class="c" transform="translate(289 239)"><rect class="d" width="8" height="8"/><rect class="a" x="0.5" y="0.5" width="7" height="7"/></g><g class="c" transform="translate(297 231)"><rect class="d" width="8" height="8"/><rect class="a" x="0.5" y="0.5" width="7" height="7"/></g><g class="c" transform="translate(297 247)"><rect class="d" width="8" height="8"/><rect class="a" x="0.5" y="0.5" width="7" height="7"/></g></g><g transform="translate(-129 -223)"><g class="c" transform="translate(289 223)"><rect class="d" width="8" height="8"/><rect class="a" x="0.5" y="0.5" width="7" height="7"/></g><g class="c" transform="translate(289 239)"><rect class="d" width="8" height="8"/><rect class="a" x="0.5" y="0.5" width="7" height="7"/></g><g class="c" transform="translate(297 231)"><rect class="d" width="8" height="8"/><rect class="a" x="0.5" y="0.5" width="7" height="7"/></g><g class="c" transform="translate(297 247)"><rect class="d" width="8" height="8"/><rect class="a" x="0.5" y="0.5" width="7" height="7"/></g></g><g transform="translate(-113 -223)"><g class="c" transform="translate(289 223)"><rect class="d" width="8" height="8"/><rect class="a" x="0.5" y="0.5" width="7" height="7"/></g><g class="c" transform="translate(289 239)"><rect class="d" width="8" height="8"/><rect class="a" x="0.5" y="0.5" width="7" height="7"/></g><g class="c" transform="translate(297 231)"><rect class="d" width="8" height="8"/><rect class="a" x="0.5" y="0.5" width="7" height="7"/></g><g class="c" transform="translate(297 247)"><rect class="d" width="8" height="8"/><rect class="a" x="0.5" y="0.5" width="7" height="7"/></g></g><g transform="translate(-97 -223)"><g class="c" transform="translate(289 223)"><rect class="d" width="8" height="8"/><rect class="a" x="0.5" y="0.5" width="7" height="7"/></g><g class="c" transform="translate(289 239)"><rect class="d" width="8" height="8"/><rect class="a" x="0.5" y="0.5" width="7" height="7"/></g><g class="c" transform="translate(297 231)"><rect class="d" width="8" height="8"/><rect class="a" x="0.5" y="0.5" width="7" height="7"/></g><g class="c" transform="translate(297 247)"><rect class="d" width="8" height="8"/><rect class="a" x="0.5" y="0.5" width="7" height="7"/></g></g><g transform="translate(-81 -223)"><g class="c" transform="translate(289 223)"><rect class="d" width="8" height="8"/><rect class="a" x="0.5" y="0.5" width="7" height="7"/></g><g class="c" transform="translate(289 239)"><rect class="d" width="8" height="8"/><rect class="a" x="0.5" y="0.5" width="7" height="7"/></g><g class="c" transform="translate(297 231)"><rect class="d" width="8" height="8"/><rect class="a" x="0.5" y="0.5" width="7" height="7"/></g><g class="c" transform="translate(297 247)"><rect class="d" width="8" height="8"/><rect class="a" x="0.5" y="0.5" width="7" height="7"/></g></g><g transform="translate(-65 -223)"><g class="c" transform="translate(289 223)"><rect class="d" width="8" height="8"/><rect class="a" x="0.5" y="0.5" width="7" height="7"/></g><g class="c" transform="translate(289 239)"><rect class="d" width="8" height="8"/><rect class="a" x="0.5" y="0.5" width="7" height="7"/></g><g class="c" transform="translate(297 231)"><rect class="d" width="8" height="8"/><rect class="a" x="0.5" y="0.5" width="7" height="7"/></g><g class="c" transform="translate(297 247)"><rect class="d" width="8" height="8"/><rect class="a" x="0.5" y="0.5" width="7" height="7"/></g></g><g transform="translate(-49 -223)"><g class="c" transform="translate(289 223)"><rect class="d" width="8" height="8"/><rect class="a" x="0.5" y="0.5" width="7" height="7"/></g><g class="c" transform="translate(289 239)"><rect class="d" width="8" height="8"/><rect class="a" x="0.5" y="0.5" width="7" height="7"/></g><g class="c" transform="translate(297 231)"><rect class="d" width="8" height="8"/><rect class="a" x="0.5" y="0.5" width="7" height="7"/></g><g class="c" transform="translate(297 247)"><rect class="d" width="8" height="8"/><rect class="a" x="0.5" y="0.5" width="7" height="7"/></g></g><g transform="translate(-33 -223)"><g class="c" transform="translate(289 223)"><rect class="d" width="8" height="8"/><rect class="a" x="0.5" y="0.5" width="7" height="7"/></g><g class="c" transform="translate(289 239)"><rect class="d" width="8" height="8"/><rect class="a" x="0.5" y="0.5" width="7" height="7"/></g><g class="c" transform="translate(297 231)"><rect class="d" width="8" height="8"/><rect class="a" x="0.5" y="0.5" width="7" height="7"/></g><g class="c" transform="translate(297 247)"><rect class="d" width="8" height="8"/><rect class="a" x="0.5" y="0.5" width="7" height="7"/></g></g><g transform="translate(-17 -223)"><g class="c" transform="translate(289 223)"><rect class="d" width="8" height="8"/><rect class="a" x="0.5" y="0.5" width="7" height="7"/></g><g class="c" transform="translate(289 239)"><rect class="d" width="8" height="8"/><rect class="a" x="0.5" y="0.5" width="7" height="7"/></g><g class="c" transform="translate(297 231)"><rect class="d" width="8" height="8"/><rect class="a" x="0.5" y="0.5" width="7" height="7"/></g><g class="c" transform="translate(297 247)"><rect class="d" width="8" height="8"/><rect class="a" x="0.5" y="0.5" width="7" height="7"/></g></g><g transform="translate(-1 -223)"><g class="c" transform="translate(289 223)"><rect class="d" width="8" height="8"/><rect class="a" x="0.5" y="0.5" width="7" height="7"/></g><g class="c" transform="translate(289 239)"><rect class="d" width="8" height="8"/><rect class="a" x="0.5" y="0.5" width="7" height="7"/></g><g class="c" transform="translate(297 231)"><rect class="d" width="8" height="8"/><rect class="a" x="0.5" y="0.5" width="7" height="7"/></g><g class="c" transform="translate(297 247)"><rect class="d" width="8" height="8"/><rect class="a" x="0.5" y="0.5" width="7" height="7"/></g></g><g transform="translate(15 -223)"><g class="c" transform="translate(289 223)"><rect class="d" width="8" height="8"/><rect class="a" x="0.5" y="0.5" width="7" height="7"/></g><g class="c" transform="translate(289 239)"><rect class="d" width="8" height="8"/><rect class="a" x="0.5" y="0.5" width="7" height="7"/></g><g class="c" transform="translate(297 231)"><rect class="d" width="8" height="8"/><rect class="a" x="0.5" y="0.5" width="7" height="7"/></g><g class="c" transform="translate(297 247)"><rect class="d" width="8" height="8"/><rect class="a" x="0.5" y="0.5" width="7" height="7"/></g></g><g transform="translate(31 -223)"><g class="c" transform="translate(289 223)"><rect class="d" width="8" height="8"/><rect class="a" x="0.5" y="0.5" width="7" height="7"/></g><g class="c" transform="translate(289 239)"><rect class="d" width="8" height="8"/><rect class="a" x="0.5" y="0.5" width="7" height="7"/></g><g class="c" transform="translate(297 231)"><rect class="d" width="8" height="8"/><rect class="a" x="0.5" y="0.5" width="7" height="7"/></g><g class="c" transform="translate(297 247)"><rect class="d" width="8" height="8"/><rect class="a" x="0.5" y="0.5" width="7" height="7"/></g></g></g></svg>