<svg xmlns="http://www.w3.org/2000/svg" width="95.997" height="24" viewBox="0 0 95.997 24">
  <defs>
    <style>
      .cls-1 {
        fill: #fff;
      }
    </style>
  </defs>
  <g id="f1_logo_white" data-name="f1_logo white" transform="translate(-0.003 0)">
    <path id="Path_1" data-name="Path 1" class="cls-1" d="M80.87,24h.5V21.685h.008L82.21,24h.432l.831-2.314h.009V24h.5V21h-.731l-.806,2.348h-.009L81.609,21H80.87v3ZM78.1,21.454h.949V24h.525V21.454h.953V21H78.1v.453ZM72,24,96,0H81.556l-24,24H72ZM68.56,10.452H39.507c-8.854,0-10.4.469-14.2,4.262C21.764,18.26,16,24,16,24H28.588l3-3c1.974-1.974,2.992-2.178,7.137-2.178H60.193l8.366-8.367ZM24.924,13C22.3,15.473,16.6,21.01,13.533,24H0S10.844,13.189,16.87,7.257C23.079,1.348,26.173,0,37.561,0H79.012L70.037,8.975H38.4c-8,0-9.8.554-13.479,4.027Z"/>
  </g>
</svg>
