<svg xmlns="http://www.w3.org/2000/svg" width="67.944" height="73" viewBox="0 0 67.944 73"><g transform="translate(-0.095 0.001)"><path d="M336.9,297.957A1.107,1.107,0,0,0,338,296.885q.017-.531.055-1.06a1.107,1.107,0,1,0-2.207-.163c-.027.383-.049.767-.06,1.15a1.107,1.107,0,0,0,1.07,1.142Zm0,0" transform="translate(-287.59 -252.335)"/><path d="M340.21,348.98a1.107,1.107,0,0,0,1.077-1.367c-.082-.339-.156-.683-.221-1.026a1.107,1.107,0,1,0-2.175.409q.11.569.243,1.136A1.107,1.107,0,0,0,340.21,348.98Zm0,0" transform="translate(-290.21 -296.062)"/><path d="M344.775,244.562a1.107,1.107,0,0,0-1.369.758c-.1.366-.206.735-.3,1.107a1.107,1.107,0,0,0,.805,1.343,1.125,1.125,0,0,0,.27.033,1.106,1.106,0,0,0,1.072-.838q.13-.519.278-1.033a1.107,1.107,0,0,0-.759-1.37Zm0,0" transform="translate(-293.811 -209.434)"/><path d="M353.5,387.539a1.107,1.107,0,0,0-.476,1.492l.053.1c.145.283.291.565.426.851a1.107,1.107,0,0,0,2-.944c-.146-.31-.3-.615-.462-.922l-.053-.1a1.108,1.108,0,0,0-1.491-.477Zm0,0" transform="translate(-302.212 -331.836)"/><path d="M356.485,436.418a1.107,1.107,0,0,0-1.439.616,5.467,5.467,0,0,1-.414.823,1.107,1.107,0,1,0,1.889,1.153,7.7,7.7,0,0,0,.579-1.152,1.107,1.107,0,0,0-.616-1.44Zm0,0" transform="translate(-303.55 -373.049)"/><path d="M41.308,211.594a1.107,1.107,0,1,0-1.413-1.706,8.275,8.275,0,0,0-.918.885,1.108,1.108,0,0,0,1.66,1.469,6.137,6.137,0,0,1,.67-.649Zm0,0" transform="translate(-33.596 -179.569)"/><path d="M215.455,109.32a1.106,1.106,0,0,0,.553-.148l.959-.553a1.107,1.107,0,1,0-1.107-1.918l-.958.553a1.107,1.107,0,0,0,.553,2.067Zm0,0" transform="translate(-183.503 -91.276)"/><path d="M171.136,134.9a1.1,1.1,0,0,0,.554-.148l.958-.553a1.107,1.107,0,1,0-1.107-1.917l-.959.553a1.107,1.107,0,0,0,.553,2.065Zm0,0" transform="translate(-145.546 -113.187)"/><path d="M362.1,196.913a1.107,1.107,0,0,0-1.481.508c-.167.341-.332.684-.486,1.031a1.107,1.107,0,0,0,2.017.914q.222-.49.459-.972a1.107,1.107,0,0,0-.508-1.481Zm0,0" transform="translate(-308.327 -168.566)"/><path d="M385.037,157.561a1.107,1.107,0,0,0,1.848,1.218c.192-.29.385-.577.6-.886l-1.84-1.233Q385.338,157.1,385.037,157.561Zm0,0" transform="translate(-328.632 -134.205)"/><path d="M313.928,467.628a5.493,5.493,0,0,1-.919.1,1.107,1.107,0,0,0,.022,2.214h.023a7.749,7.749,0,0,0,1.284-.134,1.109,1.109,0,1,0-.41-2.179Zm0,0" transform="translate(-267.057 -400.263)"/><path d="M348.476,32.808a1.087,1.087,0,0,0,.554-.149l.195-.11a6.244,6.244,0,0,1,.664-.332,1.109,1.109,0,0,0-.865-2.043,8.322,8.322,0,0,0-.907.454l-.195.11a1.107,1.107,0,0,0,.553,2.066Zm0,0" transform="translate(-297.433 -26.183)"/><path d="M304.147,58.133a1.106,1.106,0,0,0,.553-.148l.959-.553a1.107,1.107,0,0,0-1.107-1.917l-.959.554a1.107,1.107,0,0,0,.554,2.065Zm0,0" transform="translate(-259.469 -48.187)"/><path d="M126.775,160.529a1.093,1.093,0,0,0,.553-.148l.96-.553a1.107,1.107,0,0,0-1.107-1.918l-.96.553a1.107,1.107,0,0,0,.553,2.067Zm0,0" transform="translate(-107.55 -135.143)"/><path d="M25.579,254.722a1.107,1.107,0,0,0-1.071,1.143,8.37,8.37,0,0,0,.136,1.266,1.107,1.107,0,0,0,2.177-.406,6.185,6.185,0,0,1-.1-.932,1.131,1.131,0,0,0-1.143-1.071Zm0,0" transform="translate(-21.245 -218.173)"/><path d="M430.754,67a1.107,1.107,0,0,0,2.188-.332,8.888,8.888,0,0,0-.284-1.234,1.107,1.107,0,1,0-2.116.641A6.648,6.648,0,0,1,430.754,67Zm0,0" transform="translate(-368.329 -56.222)"/><path d="M259.807,83.609a1.1,1.1,0,0,0,.553-.148l.96-.553a1.107,1.107,0,1,0-1.107-1.916l-.96.554a1.107,1.107,0,0,0,.554,2.065Zm0,0" transform="translate(-221.49 -69.403)"/><path d="M397.28,31.261a6.216,6.216,0,0,1,.853.393,1.109,1.109,0,1,0,1.08-1.936,8.437,8.437,0,0,0-1.162-.533,1.108,1.108,0,0,0-.775,2.075Zm0,0" transform="translate(-338.807 -25.339)"/><path d="M416.5,114.185l-.086.089a1.107,1.107,0,1,0,1.591,1.54l.085-.089c.24-.248.48-.5.708-.753a1.108,1.108,0,1,0-1.66-1.467C416.937,113.737,416.719,113.958,416.5,114.185Zm0,0" transform="translate(-355.815 -96.905)"/><path d="M50.144,299.068a6.113,6.113,0,0,1-.8-.491,1.107,1.107,0,1,0-1.3,1.792,8.5,8.5,0,0,0,1.083.664,1.107,1.107,0,0,0,1.014-1.965Zm0,0" transform="translate(-41.324 -255.582)"/><path d="M192.078,314.2a1.108,1.108,0,1,0-1.624,1.506,7.172,7.172,0,0,1,.606.745,1.107,1.107,0,1,0,1.806-1.279A9.662,9.662,0,0,0,192.078,314.2Zm0,0" transform="translate(-162.798 -268.825)"/><path d="M270.593,446.538a1.107,1.107,0,0,0-1.84,1.23,7.812,7.812,0,0,0,.807,1.009,1.108,1.108,0,0,0,1.607-1.524A5.339,5.339,0,0,1,270.593,446.538Zm0,0" transform="translate(-229.975 -381.521)"/><path d="M147.281,292.983a9.7,9.7,0,0,0-1.24-.139,1.154,1.154,0,0,0-1.159,1.051,1.107,1.107,0,0,0,1.054,1.16,7.443,7.443,0,0,1,.959.111,1.042,1.042,0,0,0,.195.017,1.107,1.107,0,0,0,.192-2.2Zm0,0" transform="translate(-124.002 -250.885)"/><path d="M244.841,402.186a1.107,1.107,0,0,0-1.917,1.107l.553.96a1.107,1.107,0,1,0,1.917-1.107Zm0,0" transform="translate(-207.879 -344.02)"/><path d="M82.471,186.11a1.1,1.1,0,0,0,.553-.148l.959-.553a1.107,1.107,0,1,0-1.107-1.917l-.959.553a1.107,1.107,0,0,0,.554,2.064Zm0,0" transform="translate(-69.607 -157.054)"/><path d="M219.166,357.77a1.107,1.107,0,1,0-1.917,1.107l.553.96a1.108,1.108,0,0,0,.96.554,1.089,1.089,0,0,0,.553-.149,1.107,1.107,0,0,0,.405-1.512Zm0,0" transform="translate(-185.88 -305.965)"/><path d="M97.814,303.982a6.258,6.258,0,0,1-.875.332,1.107,1.107,0,1,0,.616,2.125,8.105,8.105,0,0,0,1.194-.448,1.107,1.107,0,1,0-.935-2.006Zm0,0" transform="translate(-82.227 -260.312)"/><path d="M60.917,25.83a44.564,44.564,0,0,1,2.77-3.6c.189-.219.392-.429.647-.692A11.906,11.906,0,0,0,67.3,17.216,12.9,12.9,0,0,0,48.683,1.729L6.375,26.162a12.9,12.9,0,0,0,12.9,22.344,4.545,4.545,0,0,1,6.215,1.665L35.143,66.9A12.185,12.185,0,0,0,57.732,58.9a14.813,14.813,0,0,0-1.678-4.55c-.179-.345-.358-.689-.506-1.05a18.477,18.477,0,0,1-.859-2.661,28.074,28.074,0,0,1,1.854-16.786,41.739,41.739,0,0,1,4.373-8.027ZM52.325,51.218a20.881,20.881,0,0,0,.975,3.015c.174.426.384.836.642,1.34a12.115,12.115,0,0,1,1.394,3.718,9.747,9.747,0,0,1-18.071,6.394L27.6,48.955A6.936,6.936,0,0,0,23.359,45.7a7.081,7.081,0,0,0-1.816-.244,6.962,6.962,0,0,0-3.483.937A10.465,10.465,0,0,1,7.593,28.277L49.9,3.839A10.465,10.465,0,0,1,65,16.395a9.732,9.732,0,0,1-2.465,3.5c-.244.244-.481.5-.7.754a46.691,46.691,0,0,0-2.925,3.793,44.322,44.322,0,0,0-4.631,8.5,30.513,30.513,0,0,0-1.952,18.275Zm0,0" transform="translate(0)"/><path d="M104.83,58.833a5.819,5.819,0,0,0-.446-4.758,5.751,5.751,0,0,0-7.827-2.085L79.4,61.877H79.4L53.2,76.983a5.723,5.723,0,0,0,5.731,9.907,12.162,12.162,0,0,1,16.6,4.441l9.9,17.115a4.992,4.992,0,0,0,6.821,1.828,5.08,5.08,0,0,0,2.438-5.1,8.273,8.273,0,0,0-.935-2.3c-.272-.524-.58-1.122-.84-1.759a26.149,26.149,0,0,1-1.229-3.8c-1.588-6.563-.791-14.284,2.24-21.74a50.115,50.115,0,0,1,5.261-9.658,53.291,53.291,0,0,1,3.307-4.283c.308-.358.64-.7.972-1.047a5.649,5.649,0,0,0,1.366-1.752Zm-16.611.838,2.188,3.791a1.246,1.246,0,0,1-.459,1.7L85.62,67.657a1.25,1.25,0,0,1-1.706-.458l-2.187-3.788ZM75.312,67.114v2.975a2.508,2.508,0,0,1-1.28,2.189l-8.054,4.466A2.553,2.553,0,0,1,64.2,77l-4.366-.965ZM102.523,57.9a10.2,10.2,0,0,1-.854.95c-.375.381-.736.764-1.075,1.16a56.088,56.088,0,0,0-3.462,4.488,52.689,52.689,0,0,0-5.523,10.14c-3.227,7.935-4.062,16.2-2.353,23.265a28.944,28.944,0,0,0,1.344,4.159c.3.736.636,1.383.93,1.955a7.861,7.861,0,0,1,.691,1.55A2.575,2.575,0,0,1,91,108.111a2.5,2.5,0,0,1-3.408-.911l-9.9-17.115A14.658,14.658,0,0,0,57.68,84.728a3.229,3.229,0,0,1-3.234-5.589l2.192-1.263,7.023,1.554a4.958,4.958,0,0,0,1.081.124,5.131,5.131,0,0,0,2.434-.623l8.071-4.477a5,5,0,0,0,2.562-4.365V65.674l1.749-1.009,2.185,3.787A3.726,3.726,0,0,0,84.019,70.2a3.781,3.781,0,0,0,.976.124,3.741,3.741,0,0,0,1.867-.5l4.328-2.493a3.736,3.736,0,0,0,1.374-5.111l-2.189-3.794,7.426-4.28a3.24,3.24,0,0,1,4.416,1.179,3.318,3.318,0,0,1,.3,2.572Zm0,0" transform="translate(-43.755 -44.582)"/></g></svg>