<svg xmlns="http://www.w3.org/2000/svg" width="35.952" height="24" viewBox="0 0 35.952 24"><path d="M33.078,3.76h1.665a1.2,1.2,0,0,0,1.1-.7,1.161,1.161,0,0,0-.156-1.249,4.509,4.509,0,0,0-7.092.148h-2.3A2.381,2.381,0,0,0,22.176.989a2.368,2.368,0,0,0-3.6,0,2.368,2.368,0,0,0-3.6,0,2.381,2.381,0,0,0-4.115.971h-3.5A4.508,4.508,0,0,0,.271,1.812,1.162,1.162,0,0,0,.115,3.06a1.2,1.2,0,0,0,1.1.7H2.875a1.277,1.277,0,0,1,1.3,1.111,1.2,1.2,0,0,1-.349.937,1.189,1.189,0,0,1-.851.352H1.247a1.182,1.182,0,0,0-1.091.7,1.2,1.2,0,0,0,.2,1.306A4.51,4.51,0,0,0,7.332,7.96h1L7.52,9.986A2.423,2.423,0,0,0,7.628,12l3.622,5.83a1.207,1.207,0,0,1,.127.536V22.96a1.2,1.2,0,0,0,1.2,1.2h8.4a1.2,1.2,0,0,0,1.2-1.2V19.813a1.2,1.2,0,0,1,.126-.534l2.236-3.013a8.953,8.953,0,0,0,1.816-4.67c.015-.212.023-.424.023-.637v-3h2.244a4.51,4.51,0,0,0,6.975.208,1.2,1.2,0,0,0,.2-1.306,1.182,1.182,0,0,0-1.091-.7H32.976a1.19,1.19,0,0,1-.848-.352,1.2,1.2,0,0,1-.349-.937,1.277,1.277,0,0,1,1.3-1.111Zm-9.1-2.4a1.2,1.2,0,0,1,1.2,1.2v4.2a1.2,1.2,0,1,1-2.4,0V2.56a1.2,1.2,0,0,1,1.2-1.2Zm-3.6,0a1.2,1.2,0,0,1,1.2,1.2v4.2a1.2,1.2,0,1,1-2.4,0V2.56a1.2,1.2,0,0,1,1.2-1.2Zm-3.6,0a1.2,1.2,0,0,1,1.2,1.2V4.48a1.814,1.814,0,0,0-.628-.12H15.576V2.56a1.2,1.2,0,0,1,1.2-1.2Zm-3.6,0a1.2,1.2,0,0,1,1.2,1.2v1.8h-2.4V2.56a1.2,1.2,0,0,1,1.2-1.2ZM3.756,8.518a3.347,3.347,0,0,1-2.5-1.144l-.449.4.44-.412H2.976A2.4,2.4,0,0,0,5.371,4.785a2.464,2.464,0,0,0-2.5-2.225l-1.68.02A3.338,3.338,0,0,1,3.756,1.36a3.5,3.5,0,0,1,3.42,3.576,3.508,3.508,0,0,1-3.42,3.582ZM8.025,6.76a4.9,4.9,0,0,0,.016-3.6h2.735V4.546a2.98,2.98,0,0,0-1.761,1.7L8.81,6.76Zm17.131,4.751a7.762,7.762,0,0,1-1.583,4.04L21.309,18.6a.654.654,0,0,0-.046.073,2.4,2.4,0,0,0-.287,1.14V22.96h-8.4V18.365a2.44,2.44,0,0,0-.28-1.121l-3.62-5.829a1.2,1.2,0,0,1-.041-.982l1.5-3.741A1.792,1.792,0,0,1,11.8,5.56h5.545a.61.61,0,0,1,.466.216.575.575,0,0,1,.13.469A2.639,2.639,0,0,1,14.976,8.56h-1.8a.6.6,0,0,0-.212,1.162c.044.017,4.412,1.712,4.412,5.438a.6.6,0,1,0,1.2,0,6.672,6.672,0,0,0-3.107-5.418,3.735,3.735,0,0,0,2.983-1.563,2.374,2.374,0,0,0,3.725.152,2.352,2.352,0,0,0,3,.5V10.96c0,.184-.007.369-.02.552Zm1.22-4.751V3.16h1.535a4.9,4.9,0,0,0,.016,3.6Zm4.9-.1a2.385,2.385,0,0,0,1.7.7l1.72.014a3.346,3.346,0,0,1-2.5,1.144,3.508,3.508,0,0,1-3.42-3.582A3.5,3.5,0,0,1,32.2,1.36a3.333,3.333,0,0,1,2.549,1.2H33.078a2.464,2.464,0,0,0-2.5,2.225,2.4,2.4,0,0,0,.7,1.872Zm0,0" transform="translate(0 -0.16)"/></svg>