<svg xmlns="http://www.w3.org/2000/svg" width="24.439" height="24" viewBox="0 0 24.439 24"><g transform="translate(0 -3.914)"><g transform="translate(0 3.914)"><path d="M24.159,10.467,12.492,3.985a.553.553,0,0,0-.544,0L.286,10.467A.556.556,0,0,0,0,10.954v16.41a.537.537,0,0,0,.538.549H23.89a.537.537,0,0,0,.549-.538V10.96A.543.543,0,0,0,24.159,10.467ZM20.072,26.8H4.373V24.5h15.7Zm0-3.42H4.373v-2.13h15.7Zm0-3.252H4.373V18h15.7Zm0-3.252H4.373v-2.13h15.7ZM23.323,26.8h-2.13V14.2a.559.559,0,0,0-.544-.577H3.8a.563.563,0,0,0-.544.577V26.8H1.122V11.285l11.1-6.173,11.1,6.173Z" transform="translate(0 -3.914)"/></g></g></svg>