<svg xmlns="http://www.w3.org/2000/svg" width="29.29" height="24" viewBox="0 0 29.29 24"><g transform="translate(0.001 -0.105)"><path d="M23.456,1.829C18.418-.8,12.017-.4,6.337,2.888a16.846,16.846,0,0,0-2.925,2.09.975.975,0,0,0,.655,1.7H6.2A8.44,8.44,0,0,0,2.775,14.1a1.453,1.453,0,0,0-.668.8L1.6,16.432l-.641.01a.975.975,0,0,0-.869,1.375L2.65,23.266a1.466,1.466,0,0,0,1.591.815l5.875-1.1c1.268-.237,2.541-.464,3.812-.693s2.563-.459,3.843-.7q.8-.146,1.622-.29a39.577,39.577,0,0,0,5.964-1.36,4.9,4.9,0,0,0,1.888-1.073c2.16-2.1,2.118-5.571,2-6.967-.414-4.9-2.362-8.288-5.788-10.076ZM7.964,6.674h5.2a.488.488,0,0,1,.488.488V12.8a.488.488,0,0,1-.334.462L6.862,15.412,4.148,14.055a1.44,1.44,0,0,0-.407-.126A7.642,7.642,0,0,1,7.964,6.674Zm18.6,11.5a3.835,3.835,0,0,1-1.523.848,39.02,39.02,0,0,1-5.816,1.322c-.549.1-1.1.191-1.634.292-1.277.238-2.556.468-3.836.7s-2.547.456-3.819.694l-5.875,1.1a.49.49,0,0,1-.531-.272L.974,17.417l.983-.016a.487.487,0,0,0,.455-.333l.62-1.861a.483.483,0,0,1,.276-.3.5.5,0,0,1,.187-.038.479.479,0,0,1,.217.052l2.9,1.452a.493.493,0,0,0,.372.026l6.647-2.216a1.462,1.462,0,0,0,1-1.39V7.162A1.463,1.463,0,0,0,13.163,5.7h-9.1A15.912,15.912,0,0,1,6.825,3.732C12.215.611,18.264.221,23.006,2.694c3.109,1.623,4.882,4.75,5.267,9.3.107,1.256.154,4.375-1.708,6.184Zm0,0" transform="translate(0)"/><path class="a" d="M45.845,306.516a.5.5,0,0,0-.91.428l1.567,3.33a.5.5,0,1,0,.909-.428Zm0,0" transform="translate(-42.203 -288.526)"/><path class="a" d="M79.419,298.122a.5.5,0,1,0-.91.428l1.567,3.33a.5.5,0,1,0,.91-.428Zm0,0" transform="translate(-73.918 -280.633)"/><path class="a" d="M112.932,291.689a.5.5,0,1,0-.908.428l1.517,3.219a.5.5,0,1,0,.908-.428Zm0,0" transform="translate(-105.486 -274.577)"/><path class="a" d="M274.341,113.511l-3.39-2.347a1.507,1.507,0,0,0-2.364,1.239v3.652a1.507,1.507,0,0,0,2.047,1.406l3.391-1.306a1.506,1.506,0,0,0,.316-2.645Zm-.359,1.3a.489.489,0,0,1-.318.408l-3.391,1.306a.5.5,0,0,1-.682-.469V112.4a.492.492,0,0,1,.269-.445.522.522,0,0,1,.237-.059.487.487,0,0,1,.281.091l3.39,2.347a.49.49,0,0,1,.213.472Zm0,0" transform="translate(-253.111 -104.426)"/><path class="a" d="M303.164,164.049a.5.5,0,1,1-.5-.5A.5.5,0,0,1,303.164,164.049Zm0,0" transform="translate(-284.626 -153.959)"/><path class="a" d="M101.055,132.92a.5.5,0,0,0,.635-.318,2.951,2.951,0,0,1,1.694-1.692.5.5,0,1,0-.319-.954,3.926,3.926,0,0,0-2.326,2.327.5.5,0,0,0,.317.637Zm0,0" transform="translate(-94.882 -122.314)"/></g></svg>