<svg xmlns="http://www.w3.org/2000/svg" width="64" height="64.001" viewBox="0 0 64 64.001">
    <g transform="translate(-0.008 0.001)">
        <path d="M224.645,36.068a3.336,3.336,0,0,1,0-3.528,1.074,1.074,0,0,0-1.789-1.187,5.487,5.487,0,0,0,0,5.9,1.074,1.074,0,1,0,1.784-1.194Zm0,0" transform="translate(-194.246 -27.003)"/>
        <path d="M2.141,44.8V62.934A1.067,1.067,0,0,0,3.208,64h57.6a1.067,1.067,0,0,0,1.067-1.066V39.468a2.134,2.134,0,0,0,2.133-2.133V35.2a2.134,2.134,0,0,0-2.133-2.133H43.445a2.11,2.11,0,0,0,.3-1.067V29.868a2.133,2.133,0,0,0-2.133-2.133H40.541v-.854a3.413,3.413,0,0,0-3.414-3.413H35.986c-.355-2.248.787-5.5,1.911-8.658q.2-.56.4-1.122c2.849-2,7.3-6.187,7.3-10.24A3.394,3.394,0,0,0,44.571.826,3.322,3.322,0,0,0,42.278,0a4.932,4.932,0,0,0-3.285,1.322c-.039-.059-.068-.119-.107-.176A2.649,2.649,0,0,0,36.73.036H27.286a2.648,2.648,0,0,0-2.154,1.109c-.041.057-.07.116-.106.174A4.936,4.936,0,0,0,21.738,0a3.323,3.323,0,0,0-2.293.826,3.392,3.392,0,0,0-1.026,2.62c0,4.053,4.453,8.241,7.3,10.24q.2.562.4,1.122c1.124,3.162,2.267,6.411,1.911,8.658H26.888a3.413,3.413,0,0,0-3.414,3.414v.854H22.408a2.133,2.133,0,0,0-2.133,2.133V32a2.125,2.125,0,0,0,1.066,1.837V38.4H2.141A2.133,2.133,0,0,0,.008,40.534v2.133A2.134,2.134,0,0,0,2.141,44.8Zm2.133,0H21.341V61.868H4.275Zm19.2-1.067v-9.6H40.541V61.868H23.474ZM59.741,61.868H42.675v-22.4H59.741Zm2.134-24.533h-19.2V35.2h19.2ZM40.114,3.446c0-.549,1.089-1.312,2.163-1.312a1.283,1.283,0,0,1,.854.266,1.378,1.378,0,0,1,.334,1.047c0,2.133-1.92,4.613-3.988,6.538a13.991,13.991,0,0,0,.54-6.1,1.055,1.055,0,0,0,.1-.438Zm-19.563,0A1.378,1.378,0,0,1,20.885,2.4a1.281,1.281,0,0,1,.854-.266c1.073,0,2.162.764,2.162,1.313a1.054,1.054,0,0,0,.1.437,13.982,13.982,0,0,0,.541,6.1c-2.072-1.924-3.989-4.406-3.989-6.538Zm7.573,10.648c-1.57-4.416-3.2-8.982-1.259-11.712a.52.52,0,0,1,.416-.213h9.444a.519.519,0,0,1,.415.213c1.937,2.729.313,7.3-1.258,11.713-1.214,3.413-2.371,6.667-2.072,9.373H30.2c.3-2.706-.86-5.959-2.073-9.374ZM25.608,26.881a1.28,1.28,0,0,1,1.28-1.28h10.24a1.28,1.28,0,0,1,1.28,1.28v.854h-12.8Zm-3.2,2.987h19.2V32h-19.2ZM2.141,40.534h19.2v2.133H2.141Zm0,0" transform="translate(0 0)"/>
        <path d="M208.025,291.219a1.074,1.074,0,0,0-1.074-1.074h-1.073a1.073,1.073,0,1,0,0,2.147h1.073A1.073,1.073,0,0,0,208.025,291.219Zm0,0" transform="translate(-179.205 -253.885)"/>
        <path d="M253.913,290.145h-5.367a1.073,1.073,0,1,0,0,2.147h5.367a1.073,1.073,0,1,0,0-2.147Zm0,0" transform="translate(-216.557 -253.885)"/>
    </g>
</svg>
