<svg xmlns="http://www.w3.org/2000/svg" width="64" height="64" viewBox="0 0 64 64">
    <g transform="translate(0)">
        <path d="M2.165,153.915H4.33v2.165A2.165,2.165,0,0,0,6.5,158.245H24.9a2.165,2.165,0,0,0,2.165-2.165v-2.165H29.23A2.165,2.165,0,0,0,31.4,151.75v-6.5a2.165,2.165,0,0,0-2.165-2.165H25.983V135.51c0-2.9-2.541-3.994-4.455-4.262l-1.156-8.73h1.281v2.165a2.166,2.166,0,0,0,2.165,2.166h4.33a2.166,2.166,0,0,0,2.165-2.166v-6.5a2.165,2.165,0,0,0-2.165-2.165v-2.165a2.165,2.165,0,0,0-2.165-2.165H18.938l-.309-2.329a2.965,2.965,0,0,0-5.867.022l-.305,2.307H5.413a2.165,2.165,0,0,0-2.165,2.165v2.165a2.165,2.165,0,0,0-2.165,2.165v6.5a2.166,2.166,0,0,0,2.165,2.166h4.33a2.166,2.166,0,0,0,2.165-2.166v-2.165h1.281l-1.156,8.73c-1.914.268-4.455,1.36-4.455,4.262v7.578H2.165A2.165,2.165,0,0,0,0,145.254v6.5a2.165,2.165,0,0,0,2.165,2.165ZM6.5,156.08v-4.33H24.9v4.33Zm1.083-12.69v-3.852a31,31,0,0,1,3.545,10.047H8.66v-4.33a2.157,2.157,0,0,0-1.082-1.864Zm16.239,0a2.157,2.157,0,0,0-1.083,1.864v4.33H20.273a30.946,30.946,0,0,1,3.544-10.047Zm5.413,8.36H27.065a2.165,2.165,0,0,0-2.165-2.165v-4.33h4.33Zm-9.146-31.4-.286-2.165h1.854v2.165Zm8.064,4.33h-4.33v-6.5h4.33Zm-2.165-10.826v2.165H19.511l-.286-2.165Zm-20.57,0h6.758l-.287,2.165H5.413ZM3.248,124.684v-6.5h4.33v6.5Zm6.5-4.33v-2.165H11.6l-.286,2.165Zm1.082,12.992A1.083,1.083,0,0,0,11.9,132.4l3.008-22.713a.8.8,0,0,1,1.58-.022L19.5,132.4a1.084,1.084,0,0,0,1.073.941c.127,0,2.987.041,3.234,1.9l-1.589,2.724a33.135,33.135,0,0,0-4.134,11.615H13.316A33.134,33.134,0,0,0,9.185,137.97L7.6,135.246c.247-1.86,3.107-1.9,3.23-1.9ZM2.165,145.254H6.5v4.33A2.165,2.165,0,0,0,4.33,151.75H2.165Zm0,0" transform="translate(0 -94.246)"/>
        <path d="M97.027,307.343h2.986a2.166,2.166,0,0,0,2.15-2.413l-.433-3.748a1.114,1.114,0,0,0-.049-.217,3.336,3.336,0,0,0-6.329,0,1.078,1.078,0,0,0-.049.217l-.433,3.748a2.165,2.165,0,0,0,2.156,2.413Zm.416-5.784a1.171,1.171,0,0,1,2.154,0l.416,3.619H97.027Zm0,0" transform="translate(-83.022 -261.434)"/>
        <path d="M295.931,42.855a2.165,2.165,0,0,0-2.165-2.165h-3.248V33.111c0-2.9-2.541-3.993-4.455-4.261l-1.156-8.73h1.281v2.165a2.165,2.165,0,0,0,2.165,2.165h4.33a2.165,2.165,0,0,0,2.165-2.165v-6.5a2.165,2.165,0,0,0-2.165-2.165V11.459a2.165,2.165,0,0,0-2.165-2.165h-7.044l-.309-2.329a2.965,2.965,0,0,0-5.867.021l-.305,2.307h-7.045a2.165,2.165,0,0,0-2.165,2.165v2.165a2.165,2.165,0,0,0-2.165,2.165v6.5a2.165,2.165,0,0,0,2.165,2.165h4.33a2.165,2.165,0,0,0,2.165-2.165V20.12h1.281L274.4,28.85c-1.914.268-4.455,1.36-4.455,4.261V40.69H266.7a2.165,2.165,0,0,0-2.165,2.165v6.5a2.165,2.165,0,0,0,2.165,2.165h2.165v2.166a2.165,2.165,0,0,0,2.165,2.165h18.4a2.165,2.165,0,0,0,2.165-2.165V51.516h2.165a2.165,2.165,0,0,0,2.165-2.165Zm-8.661,0v4.33h-2.462a30.943,30.943,0,0,1,3.544-10.046v3.852A2.158,2.158,0,0,0,287.27,42.855Zm-2.65-24.9-.287-2.165h1.854v2.165Zm8.063,4.33h-4.33v-6.5h4.33Zm-2.165-10.826v2.165h-6.472l-.286-2.165Zm-20.57,0h6.758l-.287,2.165h-6.471Zm-2.165,10.826v-6.5h4.33v6.5Zm6.5-4.33V15.79h1.853l-.285,2.165Zm1.083,12.991a1.083,1.083,0,0,0,1.073-.941l3.007-22.714a.8.8,0,0,1,1.581-.021l3.01,22.735a1.082,1.082,0,0,0,1.073.941c.126,0,2.987.041,3.234,1.9l-1.589,2.724a33.125,33.125,0,0,0-4.135,11.614h-4.764a33.121,33.121,0,0,0-4.129-11.614l-1.589-2.724c.244-1.86,3.1-1.9,3.228-1.9Zm-3.248,10.044V37.139a31,31,0,0,1,3.546,10.046H273.2v-4.33A2.158,2.158,0,0,0,272.113,40.991Zm-5.413,8.36v-6.5h4.33v4.33a2.165,2.165,0,0,0-2.165,2.165Zm4.33,4.331V49.351h18.4v4.331Zm22.735-4.331H291.6a2.165,2.165,0,0,0-2.165-2.165v-4.33h4.33Zm0,0" transform="translate(-231.931 -3.881)"/>
        <path d="M361.559,204.944h2.986a2.165,2.165,0,0,0,2.15-2.413l-.433-3.748a1.051,1.051,0,0,0-.049-.217,3.336,3.336,0,0,0-6.329,0,1.115,1.115,0,0,0-.049.217l-.433,3.748a2.166,2.166,0,0,0,2.157,2.413Zm.416-5.784a1.171,1.171,0,0,1,2.154,0l.416,3.619h-2.986Zm0,0" transform="translate(-314.55 -171.806)"/>
        <path d="M248.548,4.33a1.083,1.083,0,0,0,1.083-1.082V1.083a1.083,1.083,0,1,0-2.166,0V3.248A1.083,1.083,0,0,0,248.548,4.33Zm0,0" transform="translate(-216.548)"/>
        <path d="M247.465,54.447a1.083,1.083,0,0,0,2.166,0V52.282a1.083,1.083,0,0,0-2.166,0Zm0,0" transform="translate(-216.548 -44.704)"/>
        <path d="M247.465,105.646a1.083,1.083,0,0,0,2.166,0v-2.165a1.083,1.083,0,1,0-2.166,0Zm0,0" transform="translate(-216.548 -89.612)"/>
        <path d="M247.465,156.849a1.083,1.083,0,0,0,2.166,0v-2.165a1.083,1.083,0,0,0-2.166,0Zm0,0" transform="translate(-216.548 -134.422)"/>
        <path d="M247.465,208.048a1.083,1.083,0,1,0,2.166,0v-2.165a1.083,1.083,0,0,0-2.166,0Zm0,0" transform="translate(-216.548 -179.228)"/>
        <path d="M247.465,259.249a1.083,1.083,0,0,0,2.166,0v-2.165a1.083,1.083,0,1,0-2.166,0Zm0,0" transform="translate(-216.548 -224.035)"/>
        <path d="M333.883,451.313a1.083,1.083,0,0,0,1.083-1.082v-5.413a1.083,1.083,0,0,0-2.165,0v5.413A1.082,1.082,0,0,0,333.883,451.313Zm0,0" transform="translate(-291.223 -388.395)"/>
        <path d="M428.833,450.23v-5.413a1.083,1.083,0,0,0-2.165,0v5.413a1.083,1.083,0,0,0,2.165,0Zm0,0" transform="translate(-373.494 -388.396)"/>
        <path d="M369.1,431V427.75a1.083,1.083,0,0,0-2.165,0V431a1.083,1.083,0,0,0,2.165,0Zm0,0" transform="translate(-321.091 -373.494)"/>
        <path d="M394.7,431V427.75a1.083,1.083,0,0,0-2.165,0V431a1.083,1.083,0,0,0,2.165,0Zm0,0" transform="translate(-343.494 -373.494)"/>
    </g>
</svg>
